<svg xmlns="http://www.w3.org/2000/svg" xmlns:xlink="http://www.w3.org/1999/xlink" width="136" height="136" viewBox="0 0 136 136">
  <defs>
    <filter id="사각형_705" x="0" y="0" width="136" height="136" filterUnits="userSpaceOnUse">
      <feOffset dx="4" dy="4" input="SourceAlpha"/>
      <feGaussianBlur stdDeviation="6" result="blur"/>
      <feFlood flood-opacity="0.102"/>
      <feComposite operator="in" in2="blur"/>
      <feComposite in="SourceGraphic"/>
    </filter>
  </defs>
  <g id="그룹_2413" data-name="그룹 2413" transform="translate(-1046 -177.999)">
    <g id="그룹_1876" data-name="그룹 1876" transform="translate(913.887 155.711)">
      <g transform="matrix(1, 0, 0, 1, 132.11, 22.29)" filter="url(#사각형_705)">
        <rect id="사각형_705-2" data-name="사각형 705" width="100" height="100" rx="12" transform="translate(14 14)" fill="#0370bb"/>
      </g>
      <g id="logo-white" transform="translate(156.114 78.289)">
        <path id="패스_6238" data-name="패스 6238" d="M117.034,1.678a4.406,4.406,0,0,1,2.119,3.75,4.3,4.3,0,0,1-1.034,2.826,5.589,5.589,0,0,1-2.946,1.413,12.2,12.2,0,0,0-2.326.6c-.775.326-1.55.815-1.55,1.848h8.062v2.772H108.3V12.493a4.581,4.581,0,0,1,2.067-3.859,8.041,8.041,0,0,1,3.463-1.359c1.085-.217,2.532-.326,2.532-1.848,0-1.467-1.757-1.957-2.946-1.9a4.392,4.392,0,0,0-3.1,1.467l-1.964-1.9A6.93,6.93,0,0,1,113.416.7,7.381,7.381,0,0,1,117.034,1.678Z" transform="translate(-52.383 -0.428)" fill="#fff"/>
        <path id="패스_6239" data-name="패스 6239" d="M130.656,8.918a2.551,2.551,0,0,0-.465,2.391,1.933,1.933,0,0,0,2.015,1.25h5.53V15h2.842V12.559H142.9v-2.5h-2.326V2.939a1.937,1.937,0,0,0-1.86-1.957,2.571,2.571,0,0,0-2.429,1.033Zm7.08-4.891v6.033h-4.858Z" transform="translate(-62.904 -0.548)" fill="#fff"/>
        <path id="패스_6240" data-name="패스 6240" d="M66.481,9.778H59.142v5.435H56.3V5.159A3.526,3.526,0,0,1,60.124,1.3H67V4.072H60.589c-1.085,0-1.447.543-1.447,1.63v1.63h7.339Z" transform="translate(-27.256 -0.702)" fill="#fff"/>
        <path id="패스_6241" data-name="패스 6241" d="M92.792,7.05A7.4,7.4,0,0,0,90.88,2.92,6.669,6.669,0,0,0,86.022.8,7,7,0,0,0,79.2,7.974a7.2,7.2,0,0,0,3.256,6.087,6.5,6.5,0,0,0,3.566,1.033A6.6,6.6,0,0,0,90.88,12.92l-1.964-1.848a3.977,3.977,0,0,1-5.788-.109A4.974,4.974,0,0,1,82.2,9.5H92.688A7.217,7.217,0,0,0,92.792,7.05Zm-10.8,0a4.355,4.355,0,0,1,1.085-2.12,4.024,4.024,0,0,1,4.961-.761,4.144,4.144,0,0,1,2.016,2.88H81.991Z" transform="translate(-38.321 -0.474)" fill="#fff"/>
        <path id="패스_6242" data-name="패스 6242" d="M10.333,10.907l1.912,2.12A6.887,6.887,0,0,1,7.18,15.2,7.3,7.3,0,0,1,.1,7.7,7.338,7.338,0,0,1,7.232.2,7.023,7.023,0,0,1,12.3,2.428L10.178,4.385a4.213,4.213,0,0,0-2.946-1.25A4.484,4.484,0,0,0,2.891,7.7a4.484,4.484,0,0,0,4.341,4.565A4.266,4.266,0,0,0,10.333,10.907Z" transform="translate(-0.1 -0.2)" fill="#fff"/>
        <path id="패스_6243" data-name="패스 6243" d="M35.249,1.017V2.485A5.127,5.127,0,0,0,31.322.8,7,7,0,0,0,24.5,7.974a6.967,6.967,0,0,0,6.718,7.12,5.024,5.024,0,0,0,4.031-1.685V14.93h2.894V1.017Zm-3.979,11.3a4.258,4.258,0,0,1-4.134-4.348,4.14,4.14,0,1,1,8.269,0A4.224,4.224,0,0,1,31.27,12.322Z" transform="translate(-11.89 -0.474)" fill="#fff"/>
      </g>
    </g>
  </g>
</svg>
