<svg xmlns="http://www.w3.org/2000/svg" xmlns:xlink="http://www.w3.org/1999/xlink" width="136" height="136" viewBox="0 0 136 136">
  <defs>
    <filter id="사각형_706" x="0" y="0" width="136" height="136" filterUnits="userSpaceOnUse">
      <feOffset dx="4" dy="4" input="SourceAlpha"/>
      <feGaussianBlur stdDeviation="6" result="blur"/>
      <feFlood flood-opacity="0.102"/>
      <feComposite operator="in" in2="blur"/>
      <feComposite in="SourceGraphic"/>
    </filter>
    <clipPath id="clip-path">
      <path id="교차_3" data-name="교차 3" d="M10.023,27.248V19.969a13.328,13.328,0,0,0,5.9-8.752H0V0H27.869a32.431,32.431,0,0,1,.539,5.933c0,8.828-3.228,16.263-8.824,21.315Z" fill="none"/>
    </clipPath>
    <clipPath id="clip-path-2">
      <path id="교차_6" data-name="교차 6" d="M0,7.514V0H9.887a17.605,17.605,0,0,0,16.56,11.954A18.059,18.059,0,0,0,36.469,9.187l9.561,7.279c-4.9,4.425-11.594,7.024-19.584,7.024A29.653,29.653,0,0,1,0,7.514Z" fill="none"/>
    </clipPath>
    <clipPath id="clip-path-3">
      <path id="교차_9" data-name="교차 9" d="M0,13.024A28.562,28.562,0,0,1,3.146,0h9.887V7.514a16.853,16.853,0,0,0,0,11.02L3.146,26.048A28.57,28.57,0,0,1,0,13.024Z" fill="none"/>
    </clipPath>
    <clipPath id="clip-path-4">
      <path id="교차_12" data-name="교차 12" d="M0,15.976A29.653,29.653,0,0,1,26.446,0a28.764,28.764,0,0,1,19.8,7.552l-8.49,8.317a16.162,16.162,0,0,0-11.31-4.333A17.6,17.6,0,0,0,9.887,23.49Z" fill="none"/>
    </clipPath>
  </defs>
  <g id="그룹_2410" data-name="그룹 2410" transform="translate(-1046 -178)">
    <g id="그룹_1769" data-name="그룹 1769" transform="translate(-397 -78)">
      <g transform="matrix(1, 0, 0, 1, 1443, 256)" filter="url(#사각형_706)">
        <rect id="사각형_706-2" data-name="사각형 706" width="100" height="100" rx="12" transform="translate(14 14)" fill="#ececec"/>
      </g>
      <g id="그룹_1760" data-name="그룹 1760" transform="translate(1478 291)">
        <g id="그룹_1753" data-name="그룹 1753" transform="translate(29.592 23.728)">
          <g id="그룹_1752" data-name="그룹 1752" transform="translate(0 0)" clip-path="url(#clip-path)">
            <rect id="사각형_711" data-name="사각형 711" width="61.288" height="59.469" transform="translate(-16.44 -16.113)" fill="#3e82f1"/>
          </g>
        </g>
        <g id="그룹_1755" data-name="그룹 1755" transform="translate(3.146 34.51)">
          <g id="그룹_1754" data-name="그룹 1754" transform="translate(0)" clip-path="url(#clip-path-2)">
            <rect id="사각형_714" data-name="사각형 714" width="78.909" height="55.712" transform="translate(-16.438 -16.112)" fill="#32a753"/>
          </g>
        </g>
        <g id="그룹_1757" data-name="그룹 1757" transform="translate(0 15.976)">
          <g id="그룹_1756" data-name="그룹 1756" transform="translate(0)" clip-path="url(#clip-path-3)">
            <rect id="사각형_717" data-name="사각형 717" width="45.914" height="58.27" transform="translate(-16.44 -16.112)" fill="#f9bb00"/>
          </g>
        </g>
        <g id="그룹_1759" data-name="그룹 1759" transform="translate(3.146)">
          <g id="그룹_1758" data-name="그룹 1758" transform="translate(0)" clip-path="url(#clip-path-4)">
            <rect id="사각형_720" data-name="사각형 720" width="79.124" height="55.712" transform="translate(-16.438 -16.112)" fill="#e74235"/>
          </g>
        </g>
      </g>
    </g>
  </g>
</svg>
