<svg xmlns="http://www.w3.org/2000/svg" xmlns:xlink="http://www.w3.org/1999/xlink" width="136" height="136" viewBox="0 0 136 136">
  <defs>
    <filter id="사각형_706" x="0" y="0" width="136" height="136" filterUnits="userSpaceOnUse">
      <feOffset dx="4" dy="4" input="SourceAlpha"/>
      <feGaussianBlur stdDeviation="6" result="blur"/>
      <feFlood flood-opacity="0.102"/>
      <feComposite operator="in" in2="blur"/>
      <feComposite in="SourceGraphic"/>
    </filter>
  </defs>
  <g id="그룹_2412" data-name="그룹 2412" transform="translate(-1046 -178)">
    <g id="그룹_2219" data-name="그룹 2219" transform="translate(-397 -78)">
      <g transform="matrix(1, 0, 0, 1, 1443, 256)" filter="url(#사각형_706)">
        <rect id="사각형_706-2" data-name="사각형 706" width="100" height="100" rx="12" transform="translate(14 14)" fill="#ececec"/>
      </g>
      <g id="google_analytics-icon" transform="translate(1482 287.308)">
        <path id="패스_6273" data-name="패스 6273" d="M47.273,9.83v43.5c0,4.867,3.355,7.58,6.908,7.58,3.289,0,6.908-2.307,6.908-7.58V10.159a6.923,6.923,0,0,0-6.908-7.25A7.027,7.027,0,0,0,47.273,9.83Z" transform="translate(-11.089 -2.909)" fill="#f9ab00"/>
        <g id="그룹_1982" data-name="그룹 1982" transform="translate(0 22.08)">
          <path id="패스_6274" data-name="패스 6274" d="M27.273,34.193v21.42c0,4.867,3.355,7.58,6.908,7.58,3.289,0,6.908-2.307,6.908-7.58V34.523a6.923,6.923,0,0,0-6.908-7.25A7.027,7.027,0,0,0,27.273,34.193Z" transform="translate(-9.181 -27.273)" fill="#e37400"/>
          <ellipse id="타원_58" data-name="타원 58" cx="6.908" cy="6.92" rx="6.908" ry="6.92" transform="translate(0 22.08)" fill="#e37400"/>
        </g>
      </g>
    </g>
  </g>
</svg>
